HIERARCHY
ROOT root
{
	OFFSET 0.000000 0.000000 0.000000
	CHANNELS 6 Xposition Yposition Zposition Zrotation Yrotation Xrotation
	JOINT lhip
	{
		OFFSET 0.058581 -0.082280 -0.017664
		CHANNELS 3 Zrotation Yrotation Xrotation
		JOINT lknee
		{
			OFFSET 0.043451 -0.386469 0.008037
			CHANNELS 3 Zrotation Yrotation Xrotation
			JOINT lankle
			{
				OFFSET -0.014790 -0.426874 -0.037428
				CHANNELS 3 Zrotation Yrotation Xrotation
				JOINT ltoe
				{
					OFFSET 0.041054 -0.060286 0.122042
					CHANNELS 3 Zrotation Yrotation Xrotation
					End Site
					{
						OFFSET 0.000000 0.000000 0.000000
					}
				}
			}
		}
	}
	JOINT rhip
	{
		OFFSET -0.060310 -0.090513 -0.013543
		CHANNELS 3 Zrotation Yrotation Xrotation
		JOINT rknee
		{
			OFFSET -0.043257 -0.383688 -0.004843
			CHANNELS 3 Zrotation Yrotation Xrotation
			JOINT rankle
			{
				OFFSET 0.019056 -0.420046 -0.034562
				CHANNELS 3 Zrotation Yrotation Xrotation
				JOINT rtoe
				{
					OFFSET -0.034840 -0.062106 0.130323
					CHANNELS 3 Zrotation Yrotation Xrotation
					End Site
					{
						OFFSET 0.000000 0.000000 0.000000
					}
				}
			}
		}
	}
	JOINT lowerback
	{
		OFFSET 0.004439 0.124404 -0.038385
		CHANNELS 3 Zrotation Yrotation Xrotation
		JOINT upperback
		{
			OFFSET 0.004488 0.137956 0.026820
			CHANNELS 3 Zrotation Yrotation Xrotation
			JOINT chest
			{
				OFFSET -0.002265 0.056032 0.002855
				CHANNELS 3 Zrotation Yrotation Xrotation
				JOINT lowerneck
				{
					OFFSET -0.013390 0.211636 -0.033468
					CHANNELS 3 Zrotation Yrotation Xrotation
					JOINT upperneck
					{
						OFFSET 0.010113 0.088937 0.050410
						CHANNELS 3 Zrotation Yrotation Xrotation
						End Site
						{
							OFFSET 0.000000 0.000000 0.000000
						}
					}
				}
				JOINT lclavicle
				{
					OFFSET 0.071702 0.114000 -0.018898
					CHANNELS 3 Zrotation Yrotation Xrotation
					JOINT lshoulder
					{
						OFFSET 0.122921 0.045205 -0.019046
						CHANNELS 3 Zrotation Yrotation Xrotation
						JOINT lelbow
						{
							OFFSET 0.255332 -0.015649 -0.022946
							CHANNELS 3 Zrotation Yrotation Xrotation
							JOINT lwrist
							{
								OFFSET 0.265709 0.012698 -0.007375
								CHANNELS 3 Zrotation Yrotation Xrotation
								End Site
								{
									OFFSET 0.000000 0.000000 0.000000
								}
							}
						}
					}
				}
				JOINT rclavicle
				{
					OFFSET -0.082954 0.112472 -0.023707
					CHANNELS 3 Zrotation Yrotation Xrotation
					JOINT rshoulder
					{
						OFFSET -0.113228 0.046853 -0.008472
						CHANNELS 3 Zrotation Yrotation Xrotation
						JOINT relbow
						{
							OFFSET -0.260127 -0.014369 -0.031269
							CHANNELS 3 Zrotation Yrotation Xrotation
							JOINT rwrist
							{
								OFFSET -0.269108 0.006794 -0.006027
								CHANNELS 3 Zrotation Yrotation Xrotation
								End Site
								{
									OFFSET 0.000000 0.000000 0.000000
								}
							}
						}
					}
				}
			}
		}
	}
}
MOTION
Frames: 5
Frame Time: 0.033333
-0.822096 0.287440 0.737658 93.496380 2.950056 114.558798 17.147478 2.872626 -76.963506 -3.726916 15.491816 82.902880 3.580199 13.950138 -33.188999 0.000000 -0.000000 0.000000 -14.737486 -0.829739 -77.721498 -1.899114 -18.096588 85.532704 3.359393 -10.418937 -33.173737 0.000000 -0.000000 0.000000 -0.276931 -0.688996 60.140839 1.356562 2.721991 -14.764863 3.546647 -1.468585 1.221020 -2.493075 3.353207 -28.069966 5.069995 -3.464759 -18.771770 -20.118249 0.634949 8.129107 -60.098919 6.590913 0.415903 -0.471484 -14.426399 11.665986 0.316893 -7.835298 -18.972525 16.794829 1.891263 6.292806 62.199335 -6.228895 5.211715 -11.384096 20.476397 3.731862 3.759738 6.096581 -10.377307 
-0.790175 0.286957 0.757228 93.397978 3.207830 114.341302 16.402300 1.487695 -71.915744 -3.771243 13.797500 79.741663 2.985756 14.800714 -34.096754 0.000000 -0.000000 0.000000 -12.911110 1.202562 -72.855842 -1.297691 -16.521680 81.814023 3.617439 -11.769926 -34.300954 0.000000 -0.000000 0.000000 -0.219060 -0.462524 56.559084 1.524929 2.582547 -14.743220 3.616139 -1.292754 1.020447 -1.910842 3.211201 -28.122251 4.751042 -3.364776 -16.447399 -19.973724 -1.696993 7.097602 -58.484311 2.137922 1.365483 0.519233 -18.070815 9.024559 2.406845 -7.752344 -20.939915 16.527793 3.993053 4.897261 60.374467 -2.452130 6.148498 -13.886004 23.983446 1.329911 1.717988 6.607844 -11.502721 
-0.753474 0.287807 0.786004 93.312453 3.041047 113.307666 14.476177 -0.001870 -64.584225 -4.199955 11.517358 74.788995 2.368396 15.565118 -34.680315 0.000000 -0.000000 0.000000 -10.489225 2.571528 -65.661664 -0.267405 -14.071410 76.437266 4.336799 -12.676529 -35.040651 0.000000 -0.000000 0.000000 -0.474738 -0.128479 52.574042 1.826951 2.041023 -14.984997 3.841204 -1.176117 1.464776 -1.087350 3.179984 -28.467731 4.241970 -3.763704 -12.048042 -18.554580 -3.130532 5.877532 -58.045888 -2.103594 2.772310 1.526256 -24.168686 4.661956 7.328594 -7.389289 -28.763980 15.642678 5.417427 2.937313 58.769370 1.166993 7.902200 -16.700026 29.281652 -2.386498 -1.552907 7.145735 -13.354675 
-0.709321 0.289070 0.823622 93.289256 2.809126 111.026214 11.741768 -0.770140 -54.623092 -4.847354 8.392661 68.423822 1.443501 15.349621 -34.181184 0.000000 -0.000000 0.000000 -7.061846 2.911241 -55.415028 0.409025 -10.719733 69.285332 4.843256 -12.777693 -34.946439 0.000000 -0.000000 0.000000 -0.754157 0.449579 48.279684 2.253533 1.266213 -14.414178 4.293715 -1.112597 1.689366 -0.472403 2.818032 -27.182895 3.561573 -3.805045 -7.606430 -16.949367 -4.062846 4.442465 -58.416686 -5.311182 3.740793 2.585601 -30.604496 2.118549 9.285129 -7.054801 -33.223739 14.511483 6.366843 0.571307 57.561393 3.705712 9.167242 -19.338958 35.351555 -4.266068 -2.068174 7.715740 -11.636656 
-0.654915 0.289808 0.869532 93.227106 2.508887 107.142302 8.525253 0.178611 -42.469336 -5.121780 5.073713 61.439529 -0.290776 14.277404 -30.773238 0.000000 -0.000000 0.000000 -3.593949 1.789172 -42.607776 -0.088513 -7.462703 61.305403 5.566698 -11.206194 -32.130985 0.000000 -0.000000 0.000000 -0.875324 1.379051 43.227603 2.956760 0.211639 -12.471808 4.420396 -0.965727 2.154623 -0.383562 2.952768 -23.175028 2.664774 -4.410824 -4.334070 -16.333569 -4.412115 2.750201 -58.387516 -8.613186 6.430188 2.862400 -34.061539 -0.356174 9.510074 -6.949479 -32.136402 14.467000 6.019038 -1.589276 56.629250 6.463670 10.602528 -21.331484 39.436774 -7.712694 -2.047336 7.530428 -9.634243 
